# Blender 3.6.1
# www.blender.org
mtllib tree.mtl
o Cylinder
v 0.000000 -0.186333 -0.100000
v 0.000000 1.813667 -0.100000
v 0.019509 -0.186333 -0.098079
v 0.019509 1.813667 -0.098079
v 0.038268 -0.186333 -0.092388
v 0.038268 1.813667 -0.092388
v 0.055557 -0.186333 -0.083147
v 0.055557 1.813667 -0.083147
v 0.070711 -0.186333 -0.070711
v 0.070711 1.813667 -0.070711
v 0.083147 -0.186333 -0.055557
v 0.083147 1.813667 -0.055557
v 0.092388 -0.186333 -0.038268
v 0.092388 1.813667 -0.038268
v 0.098079 -0.186333 -0.019509
v 0.098079 1.813667 -0.019509
v 0.100000 -0.186333 0.000000
v 0.100000 1.813667 0.000000
v 0.098079 -0.186333 0.019509
v 0.098079 1.813667 0.019509
v 0.092388 -0.186333 0.038268
v 0.092388 1.813667 0.038268
v 0.083147 -0.186333 0.055557
v 0.083147 1.813667 0.055557
v 0.070711 -0.186333 0.070711
v 0.070711 1.813667 0.070711
v 0.055557 -0.186333 0.083147
v 0.055557 1.813667 0.083147
v 0.038268 -0.186333 0.092388
v 0.038268 1.813667 0.092388
v 0.019509 -0.186333 0.098079
v 0.019509 1.813667 0.098079
v 0.000000 -0.186333 0.100000
v 0.000000 1.813667 0.100000
v -0.019509 -0.186333 0.098079
v -0.019509 1.813667 0.098079
v -0.038268 -0.186333 0.092388
v -0.038268 1.813667 0.092388
v -0.055557 -0.186333 0.083147
v -0.055557 1.813667 0.083147
v -0.070711 -0.186333 0.070711
v -0.070711 1.813667 0.070711
v -0.083147 -0.186333 0.055557
v -0.083147 1.813667 0.055557
v -0.092388 -0.186333 0.038268
v -0.092388 1.813667 0.038268
v -0.098079 -0.186333 0.019509
v -0.098079 1.813667 0.019509
v -0.100000 -0.186333 0.000000
v -0.100000 1.813667 0.000000
v -0.098079 -0.186333 -0.019509
v -0.098079 1.813667 -0.019509
v -0.092388 -0.186333 -0.038268
v -0.092388 1.813667 -0.038268
v -0.083147 -0.186333 -0.055557
v -0.083147 1.813667 -0.055557
v -0.070711 -0.186333 -0.070711
v -0.070711 1.813667 -0.070711
v -0.055557 -0.186333 -0.083147
v -0.055557 1.813667 -0.083147
v -0.038268 -0.186333 -0.092388
v -0.038268 1.813667 -0.092388
v -0.019509 -0.186333 -0.098079
v -0.019509 1.813667 -0.098079
v 0.000000 1.500000 -0.700000
v 0.494975 1.500000 -0.494975
v 0.700000 1.500000 0.000000
v 0.494975 1.500000 0.494975
v 0.000000 1.500000 0.700000
v -0.494975 1.500000 0.494975
v -0.700000 1.500000 0.000000
v -0.494975 1.500000 -0.494975
v 0.000000 2.500000 0.000000
v 0.000000 2.000000 -0.700000
v 0.494975 2.000000 -0.494975
v 0.700000 2.000000 0.000000
v 0.494975 2.000000 0.494975
v 0.000000 2.000000 0.700000
v -0.494975 2.000000 0.494975
v -0.700000 2.000000 0.000000
v -0.494975 2.000000 -0.494975
v 0.000000 3.000000 0.000000
v 0.000000 2.500000 -0.700000
v 0.494975 2.500000 -0.494975
v 0.700000 2.500000 0.000000
v 0.494975 2.500000 0.494975
v 0.000000 2.500000 0.700000
v -0.494975 2.500000 0.494975
v -0.700000 2.500000 0.000000
v -0.494975 2.500000 -0.494975
v 0.000000 3.500000 0.000000
v 0.000000 -0.186333 -0.100000
v 0.019509 -0.186333 -0.098079
v 0.019509 1.813667 -0.098079
v 0.000000 1.813667 -0.100000
v 0.038268 -0.186333 -0.092388
v 0.038268 1.813667 -0.092388
v 0.055557 -0.186333 -0.083147
v 0.055557 1.813667 -0.083147
v 0.070711 -0.186333 -0.070711
v 0.070711 1.813667 -0.070711
v 0.083147 -0.186333 -0.055557
v 0.083147 1.813667 -0.055557
v 0.092388 -0.186333 -0.038268
v 0.092388 1.813667 -0.038268
v 0.098079 -0.186333 -0.019509
v 0.098079 1.813667 -0.019509
v 0.100000 -0.186333 0.000000
v 0.100000 1.813667 0.000000
v 0.098079 -0.186333 0.019509
v 0.098079 1.813667 0.019509
v 0.092388 -0.186333 0.038268
v 0.092388 1.813667 0.038268
v 0.083147 -0.186333 0.055557
v 0.083147 1.813667 0.055557
v 0.070711 -0.186333 0.070711
v 0.070711 1.813667 0.070711
v 0.055557 -0.186333 0.083147
v 0.055557 1.813667 0.083147
v 0.038268 -0.186333 0.092388
v 0.038268 1.813667 0.092388
v 0.019509 -0.186333 0.098079
v 0.019509 1.813667 0.098079
v 0.000000 -0.186333 0.100000
v 0.000000 1.813667 0.100000
v -0.019509 -0.186333 0.098079
v -0.019509 1.813667 0.098079
v -0.038268 -0.186333 0.092388
v -0.038268 1.813667 0.092388
v -0.055557 -0.186333 0.083147
v -0.055557 1.813667 0.083147
v -0.070711 -0.186333 0.070711
v -0.070711 1.813667 0.070711
v -0.083147 -0.186333 0.055557
v -0.083147 1.813667 0.055557
v -0.092388 -0.186333 0.038268
v -0.092388 1.813667 0.038268
v -0.098079 -0.186333 0.019509
v -0.098079 1.813667 0.019509
v -0.100000 -0.186333 0.000000
v -0.100000 1.813667 0.000000
v -0.098079 -0.186333 -0.019509
v -0.098079 1.813667 -0.019509
v -0.092388 -0.186333 -0.038268
v -0.092388 1.813667 -0.038268
v -0.083147 -0.186333 -0.055557
v -0.083147 1.813667 -0.055557
v -0.070711 -0.186333 -0.070711
v -0.070711 1.813667 -0.070711
v -0.055557 -0.186333 -0.083147
v -0.055557 1.813667 -0.083147
v -0.038268 -0.186333 -0.092388
v -0.038268 1.813667 -0.092388
v -0.019509 -0.186333 -0.098079
v -0.019509 1.813667 -0.098079
v 0.000000 1.500000 -0.700000
v 0.000000 1.500000 -0.700000
v 0.494975 1.500000 -0.494975
v 0.494975 1.500000 -0.494975
v 0.000000 2.500000 0.000000
v 0.000000 2.500000 0.000000
v 0.000000 2.500000 0.000000
v 0.000000 2.500000 0.000000
v 0.000000 2.500000 0.000000
v 0.000000 2.500000 0.000000
v 0.000000 2.500000 0.000000
v 0.700000 1.500000 0.000000
v 0.700000 1.500000 0.000000
v 0.494975 1.500000 0.494975
v 0.494975 1.500000 0.494975
v 0.000000 1.500000 0.700000
v 0.000000 1.500000 0.700000
v -0.494975 1.500000 0.494975
v -0.494975 1.500000 0.494975
v -0.700000 1.500000 0.000000
v -0.700000 1.500000 0.000000
v -0.494975 1.500000 -0.494975
v -0.494975 1.500000 -0.494975
v 0.000000 2.000000 -0.700000
v 0.000000 2.000000 -0.700000
v 0.494975 2.000000 -0.494975
v 0.494975 2.000000 -0.494975
v 0.000000 3.000000 0.000000
v 0.000000 3.000000 0.000000
v 0.000000 3.000000 0.000000
v 0.000000 3.000000 0.000000
v 0.000000 3.000000 0.000000
v 0.000000 3.000000 0.000000
v 0.000000 3.000000 0.000000
v 0.700000 2.000000 0.000000
v 0.700000 2.000000 0.000000
v 0.494975 2.000000 0.494975
v 0.494975 2.000000 0.494975
v 0.000000 2.000000 0.700000
v 0.000000 2.000000 0.700000
v -0.494975 2.000000 0.494975
v -0.494975 2.000000 0.494975
v -0.700000 2.000000 0.000000
v -0.700000 2.000000 0.000000
v -0.494975 2.000000 -0.494975
v -0.494975 2.000000 -0.494975
v 0.000000 2.500000 -0.700000
v 0.000000 2.500000 -0.700000
v 0.494975 2.500000 -0.494975
v 0.494975 2.500000 -0.494975
v 0.000000 3.500000 0.000000
v 0.000000 3.500000 0.000000
v 0.000000 3.500000 0.000000
v 0.000000 3.500000 0.000000
v 0.000000 3.500000 0.000000
v 0.000000 3.500000 0.000000
v 0.000000 3.500000 0.000000
v 0.700000 2.500000 0.000000
v 0.700000 2.500000 0.000000
v 0.494975 2.500000 0.494975
v 0.494975 2.500000 0.494975
v 0.000000 2.500000 0.700000
v 0.000000 2.500000 0.700000
v -0.494975 2.500000 0.494975
v -0.494975 2.500000 0.494975
v -0.700000 2.500000 0.000000
v -0.700000 2.500000 0.000000
v -0.494975 2.500000 -0.494975
v -0.494975 2.500000 -0.494975
vn 0.0980 -0.0000 -0.9952
vn 0.2903 -0.0000 -0.9569
vn 0.4714 -0.0000 -0.8819
vn 0.6344 -0.0000 -0.7730
vn 0.7730 -0.0000 -0.6344
vn 0.8819 -0.0000 -0.4714
vn 0.9569 -0.0000 -0.2903
vn 0.9952 -0.0000 -0.0980
vn 0.9952 -0.0000 0.0980
vn 0.9569 -0.0000 0.2903
vn 0.8819 -0.0000 0.4714
vn 0.7730 -0.0000 0.6344
vn 0.6344 -0.0000 0.7730
vn 0.4714 -0.0000 0.8819
vn 0.2903 -0.0000 0.9569
vn 0.0980 -0.0000 0.9952
vn -0.0980 -0.0000 0.9952
vn -0.2903 -0.0000 0.9569
vn -0.4714 -0.0000 0.8819
vn -0.6344 -0.0000 0.7730
vn -0.7730 -0.0000 0.6344
vn -0.8819 -0.0000 0.4714
vn -0.9569 -0.0000 0.2903
vn -0.9952 -0.0000 0.0980
vn -0.9952 -0.0000 -0.0980
vn -0.9569 -0.0000 -0.2903
vn -0.8819 -0.0000 -0.4714
vn -0.7730 -0.0000 -0.6344
vn -0.6344 -0.0000 -0.7730
vn -0.4714 -0.0000 -0.8819
vn -0.0000 1.0000 -0.0000
vn -0.2903 -0.0000 -0.9569
vn -0.0980 -0.0000 -0.9952
vn -0.0000 -1.0000 -0.0000
vn 0.3213 0.5430 -0.7758
vn 0.7758 0.5430 -0.3213
vn 0.7758 0.5430 0.3213
vn 0.3213 0.5430 0.7758
vn -0.3213 0.5430 0.7758
vn -0.7758 0.5430 0.3213
vn -0.7758 0.5430 -0.3213
vn -0.3213 0.5430 -0.7758
vt 1.006887 0.454869
vt 0.977590 0.034947
vt 1.008840 0.034947
vt 0.975637 0.454869
vt 0.946340 0.034947
vt 0.944387 0.454869
vt 0.915090 0.034947
vt 0.913137 0.454869
vt 0.883840 0.034947
vt 0.881887 0.454869
vt 0.852590 0.034947
vt 0.850637 0.454869
vt 0.821340 0.034947
vt 0.819387 0.454869
vt 0.790090 0.034947
vt 0.788137 0.454869
vt 0.758840 0.034947
vt 0.756887 0.454869
vt 0.727590 0.034947
vt 0.725637 0.454869
vt 0.696340 0.034947
vt 0.694387 0.454869
vt 0.665090 0.034947
vt 0.663137 0.454869
vt 0.633840 0.034947
vt 0.631887 0.454869
vt 0.602590 0.034947
vt 0.600637 0.454869
vt 0.571340 0.034947
vt 0.569387 0.454869
vt 0.540090 0.034947
vt 0.538137 0.454869
vt 0.508840 0.034947
vt 0.506887 0.454869
vt 0.477590 0.034947
vt 0.475637 0.454869
vt 0.446340 0.034947
vt 0.444387 0.454869
vt 0.415090 0.034947
vt 0.413137 0.454869
vt 0.383840 0.034947
vt 0.381887 0.454869
vt 0.352590 0.034947
vt 0.350637 0.454869
vt 0.321340 0.034947
vt 0.319387 0.454869
vt 0.290090 0.034947
vt 0.288137 0.454869
vt 0.258840 0.034947
vt 0.256887 0.454869
vt 0.227590 0.034947
vt 0.225637 0.454869
vt 0.196340 0.034947
vt 0.194387 0.454869
vt 0.165090 0.034947
vt 0.163137 0.454869
vt 0.133840 0.034947
vt 0.131887 0.454869
vt 0.102590 0.034947
vt 0.100637 0.454869
vt 0.071340 0.034947
vt 0.168949 0.061263
vt 0.482524 0.191150
vt 0.350684 0.006678
vt 0.069387 0.454869
vt 0.040090 0.034947
vt 0.038137 0.454869
vt 0.008840 0.034947
vt 0.807615 0.047605
vt 0.525405 0.236172
vt 0.712018 0.020335
vt 0.287927 0.730845
vt 0.287927 0.538400
vt 0.358080 0.724980
vt 0.431218 0.676969
vt 0.464499 0.614935
vt 0.422693 0.940385
vt 0.422693 0.741052
vt 0.508049 0.921185
vt 0.515639 0.730845
vt 0.515639 0.538400
vt 0.585791 0.724980
vt 0.658930 0.676969
vt 0.211593 0.636882
vt 0.273458 0.487528
vt 0.422811 0.549392
vt 0.692210 0.614935
vt 0.559189 0.940385
vt 0.559189 0.741052
vt 0.644545 0.921185
vt 0.832181 0.933497
vt 0.832181 0.741052
vt 0.902334 0.927632
vt 0.975472 0.879621
vt 0.743350 0.730845
vt 0.743350 0.538400
vt 0.813503 0.724980
vt 0.886641 0.676969
vt 0.287927 0.974430
vt 0.287927 0.781985
vt 0.358080 0.968565
vt 0.431218 0.920554
vt 0.211593 0.899239
vt 0.273458 0.749885
vt 0.422811 0.811750
vt 0.482358 0.974430
vt 0.482358 0.781985
vt 0.552511 0.968565
vt 0.625649 0.920554
vt 0.025570 0.742729
vt 0.025570 0.550284
vt 0.095723 0.736865
vt 0.168861 0.688853
vt 0.202142 0.626819
vt 0.075675 0.937794
vt 0.075675 0.738461
vt 0.161031 0.918594
vt 0.212171 0.930906
vt 0.212171 0.738461
vt 0.282324 0.925041
vt 0.355462 0.877029
vt 0.473951 0.636882
vt 0.535815 0.487528
vt 0.685168 0.549393
vt 0.388743 0.814995
vt 0.695685 0.940385
vt 0.695685 0.741052
vt 0.781041 0.921185
vt 0.305662 0.020335
vt 0.258840 0.024947
vt 0.212018 0.020335
vt 0.166996 0.006678
vt 0.125503 -0.015501
vt 0.091087 0.452699
vt 0.061240 0.416331
vt 0.039062 0.374838
vt 0.025405 0.329815
vt 0.020793 0.282994
vt 0.025405 0.236172
vt 0.039062 0.191150
vt 0.061240 0.149657
vt 0.091087 0.113288
vt 0.127456 0.083441
vt 0.213971 0.047605
vt 0.260793 0.042994
vt 0.307615 0.047605
vt 0.352637 0.061263
vt 0.394130 0.083441
vt 0.430499 0.113288
vt 0.460346 0.149657
vt 0.496182 0.236172
vt 0.500793 0.282994
vt 0.496182 0.329815
vt 0.482524 0.374838
vt 0.460346 0.416331
vt 0.430499 0.452699
vt 0.392177 -0.015501
vt 0.006887 0.454869
vt 0.758840 0.024947
vt 0.805662 0.020335
vt 0.850684 0.006678
vt 0.892177 -0.015501
vt 0.930499 0.452699
vt 0.960346 0.416331
vt 0.982524 0.374838
vt 0.996182 0.329815
vt 1.000793 0.282994
vt 0.996182 0.236172
vt 0.982524 0.191150
vt 0.960346 0.149657
vt 0.930499 0.113288
vt 0.894130 0.083441
vt 0.852637 0.061263
vt 0.760793 0.042994
vt 0.713971 0.047605
vt 0.668949 0.061263
vt 0.627456 0.083441
vt 0.591087 0.113288
vt 0.561240 0.149657
vt 0.539062 0.191150
vt 0.520793 0.282994
vt 0.525405 0.329815
vt 0.539062 0.374838
vt 0.561240 0.416331
vt 0.591087 0.452699
vt 0.625503 -0.015501
vt 0.666996 0.006678
vt 0.422811 0.636882
vt 0.360947 0.698746
vt 0.273458 0.698746
vt 0.211593 0.549392
vt 0.360947 0.487528
vt 0.422811 0.899239
vt 0.360947 0.961103
vt 0.273458 0.961103
vt 0.211593 0.811750
vt 0.360947 0.749885
vt 0.685168 0.636882
vt 0.623304 0.698746
vt 0.535815 0.698746
vt 0.473951 0.549393
vt 0.623304 0.487528
s 0
usemtl Material.001
f 95/1/1 93/2/1 92/3/1
f 94/4/2 96/5/2 93/2/2
f 97/6/3 98/7/3 96/5/3
f 99/8/4 100/9/4 98/7/4
f 101/10/5 102/11/5 100/9/5
f 103/12/6 104/13/6 102/11/6
f 105/14/7 106/15/7 104/13/7
f 107/16/8 108/17/8 106/15/8
f 109/18/9 110/19/9 108/17/9
f 111/20/10 112/21/10 110/19/10
f 113/22/11 114/23/11 112/21/11
f 115/24/12 116/25/12 114/23/12
f 117/26/13 118/27/13 116/25/13
f 119/28/14 120/29/14 118/27/14
f 121/30/15 122/31/15 120/29/15
f 123/32/16 124/33/16 122/31/16
f 125/34/17 126/35/17 124/33/17
f 127/36/18 128/37/18 126/35/18
f 129/38/19 130/39/19 128/37/19
f 131/40/20 132/41/20 130/39/20
f 133/42/21 134/43/21 132/41/21
f 135/44/22 136/45/22 134/43/22
f 137/46/23 138/47/23 136/45/23
f 139/48/24 140/49/24 138/47/24
f 141/50/25 142/51/25 140/49/25
f 143/52/26 144/53/26 142/51/26
f 145/54/27 146/55/27 144/53/27
f 147/56/28 148/57/28 146/55/28
f 149/58/29 150/59/29 148/57/29
f 151/60/30 152/61/30 150/59/30
f 38/62/31 22/63/31 6/64/31
f 153/65/32 154/66/32 152/61/32
f 64/67/33 92/68/33 154/66/33
f 31/69/34 47/70/34 63/71/34
f 156/72/35 160/73/35 158/74/35
f 159/74/36 161/73/36 167/75/36
f 168/75/37 162/73/37 169/76/37
f 170/77/38 163/78/38 171/79/38
f 172/80/39 164/81/39 173/82/39
f 174/82/40 165/81/40 175/83/40
f 68/84/34 70/85/34 177/86/34
f 71/83/41 166/81/41 178/87/41
f 72/88/42 73/89/42 65/90/42
f 179/91/35 183/92/35 181/93/35
f 182/93/36 184/92/36 190/94/36
f 191/95/37 185/96/37 192/97/37
f 193/97/38 186/96/38 194/98/38
f 195/99/39 187/100/39 196/101/39
f 197/101/40 188/100/40 198/102/40
f 77/103/34 79/104/34 200/105/34
f 80/106/41 189/107/41 201/108/41
f 81/108/42 82/107/42 74/109/42
f 202/110/35 206/111/35 204/112/35
f 205/112/36 207/111/36 213/113/36
f 214/113/37 208/111/37 215/114/37
f 216/115/38 209/116/38 217/117/38
f 218/118/39 210/119/39 219/120/39
f 220/120/40 211/119/40 221/121/40
f 86/122/34 88/123/34 223/124/34
f 89/121/41 212/119/41 224/125/41
f 90/126/42 91/127/42 83/128/42
f 95/1/1 94/4/1 93/2/1
f 94/4/2 97/6/2 96/5/2
f 97/6/3 99/8/3 98/7/3
f 99/8/4 101/10/4 100/9/4
f 101/10/5 103/12/5 102/11/5
f 103/12/6 105/14/6 104/13/6
f 105/14/7 107/16/7 106/15/7
f 107/16/8 109/18/8 108/17/8
f 109/18/9 111/20/9 110/19/9
f 111/20/10 113/22/10 112/21/10
f 113/22/11 115/24/11 114/23/11
f 115/24/12 117/26/12 116/25/12
f 117/26/13 119/28/13 118/27/13
f 119/28/14 121/30/14 120/29/14
f 121/30/15 123/32/15 122/31/15
f 123/32/16 125/34/16 124/33/16
f 125/34/17 127/36/17 126/35/17
f 127/36/18 129/38/18 128/37/18
f 129/38/19 131/40/19 130/39/19
f 131/40/20 133/42/20 132/41/20
f 133/42/21 135/44/21 134/43/21
f 135/44/22 137/46/22 136/45/22
f 137/46/23 139/48/23 138/47/23
f 139/48/24 141/50/24 140/49/24
f 141/50/25 143/52/25 142/51/25
f 143/52/26 145/54/26 144/53/26
f 145/54/27 147/56/27 146/55/27
f 147/56/28 149/58/28 148/57/28
f 149/58/29 151/60/29 150/59/29
f 151/60/30 153/65/30 152/61/30
f 6/64/31 4/129/31 2/130/31
f 2/130/31 155/131/31 62/132/31
f 62/132/31 60/133/31 58/134/31
f 58/134/31 56/135/31 54/136/31
f 54/136/31 52/137/31 50/138/31
f 50/138/31 48/139/31 46/140/31
f 46/140/31 44/141/31 42/142/31
f 42/142/31 40/143/31 38/62/31
f 38/62/31 36/144/31 34/145/31
f 34/145/31 32/146/31 30/147/31
f 30/147/31 28/148/31 26/149/31
f 26/149/31 24/150/31 22/63/31
f 22/63/31 20/151/31 18/152/31
f 18/152/31 16/153/31 14/154/31
f 14/154/31 12/155/31 10/156/31
f 10/156/31 8/157/31 6/64/31
f 6/64/31 2/130/31 62/132/31
f 62/132/31 58/134/31 54/136/31
f 54/136/31 50/138/31 46/140/31
f 46/140/31 42/142/31 38/62/31
f 38/62/31 34/145/31 30/147/31
f 30/147/31 26/149/31 22/63/31
f 22/63/31 18/152/31 14/154/31
f 14/154/31 10/156/31 6/64/31
f 6/64/31 62/132/31 54/136/31
f 54/136/31 46/140/31 38/62/31
f 38/62/31 30/147/31 22/63/31
f 22/63/31 14/154/31 6/64/31
f 6/64/31 54/136/31 38/62/31
f 153/65/32 64/67/32 154/66/32
f 64/67/33 95/158/33 92/68/33
f 63/71/34 1/159/34 3/160/34
f 3/160/34 5/161/34 7/162/34
f 7/162/34 9/163/34 11/164/34
f 11/164/34 13/165/34 15/166/34
f 15/166/34 17/167/34 19/168/34
f 19/168/34 21/169/34 23/170/34
f 23/170/34 25/171/34 27/172/34
f 27/172/34 29/173/34 31/69/34
f 31/69/34 33/174/34 35/175/34
f 35/175/34 37/176/34 39/177/34
f 39/177/34 41/178/34 43/179/34
f 43/179/34 45/180/34 47/70/34
f 47/70/34 49/181/34 51/182/34
f 51/182/34 53/183/34 55/184/34
f 55/184/34 57/185/34 59/186/34
f 59/186/34 61/187/34 63/71/34
f 63/71/34 3/160/34 7/162/34
f 7/162/34 11/164/34 15/166/34
f 15/166/34 19/168/34 23/170/34
f 23/170/34 27/172/34 31/69/34
f 31/69/34 35/175/34 39/177/34
f 39/177/34 43/179/34 47/70/34
f 47/70/34 51/182/34 55/184/34
f 55/184/34 59/186/34 63/71/34
f 63/71/34 7/162/34 15/166/34
f 15/166/34 23/170/34 31/69/34
f 31/69/34 39/177/34 47/70/34
f 47/70/34 55/184/34 63/71/34
f 63/71/34 15/166/34 31/69/34
f 177/86/34 157/188/34 66/189/34
f 66/189/34 67/190/34 68/84/34
f 68/84/34 69/191/34 70/85/34
f 70/85/34 176/192/34 177/86/34
f 177/86/34 66/189/34 68/84/34
f 200/105/34 180/193/34 75/194/34
f 75/194/34 76/195/34 77/103/34
f 77/103/34 78/196/34 79/104/34
f 79/104/34 199/197/34 200/105/34
f 200/105/34 75/194/34 77/103/34
f 223/124/34 203/198/34 84/199/34
f 84/199/34 85/200/34 86/122/34
f 86/122/34 87/201/34 88/123/34
f 88/123/34 222/202/34 223/124/34
f 223/124/34 84/199/34 86/122/34
